<svg width="64" height="64" viewBox="0 0 64 64" fill="none" xmlns="http://www.w3.org/2000/svg">
<path d="M19.9642 7.42805C19.5688 7.56999 19.2043 7.78643 18.8904 8.06565L17.3906 9.39989C16.8801 9.85404 16.5818 10.5003 16.5672 11.1834L16.5281 13.0137H47.4703L47.4313 11.1834C47.4167 10.5003 47.1183 9.85404 46.6078 9.39989L45.108 8.06565C44.7942 7.78643 44.4297 7.56999 44.0343 7.42805C36.254 4.63509 27.7445 4.63509 19.9642 7.42805Z" fill="#363545"/>
<path fill-rule="evenodd" clip-rule="evenodd" d="M16.884 15.2193C16.6608 14.8628 16.5333 14.4558 16.5125 14.0376H29.5719L30.0966 15.2002H33.9086L34.4333 14.0376H47.486C47.4651 14.4558 47.3377 14.8628 47.1144 15.2193L46.0685 16.8897L45.7814 19.1825V19.4516C45.7814 21.038 44.7464 22.3984 43.2939 22.864L43.4346 24.4188C43.4617 24.7185 43.2256 24.9769 42.9247 24.9769H40.7913C40.4903 24.9769 40.2543 24.7185 40.2814 24.4188L40.3925 23.1908L34.9076 23.6289V27.1132H29.0924V23.6412L25.1251 23.3198L24.8111 34.782C24.8024 35.1792 24.4938 35.4965 24.1161 35.4965C23.7384 35.4965 23.4298 35.1792 23.4211 34.782L23.1025 23.156L21.5113 23.0271C19.6505 22.8764 18.2171 21.3222 18.2171 19.4553V19.1825L17.93 16.8897L16.884 15.2193ZM28.1027 17.4185C27.8765 17.4185 27.6931 17.6019 27.6931 17.8281V21.0398C27.6931 21.266 27.8765 21.4494 28.1027 21.4494H35.8974C36.1236 21.4494 36.307 21.266 36.307 21.0398V17.8281C36.307 17.6019 36.1236 17.4185 35.8974 17.4185H28.1027Z" fill="#363545"/>
<path d="M16.256 13.2817C16.1146 13.2817 16 13.3963 16 13.5377C16 13.679 16.1146 13.7936 16.256 13.7936H29.6092L30.1815 14.9989H33.8185L34.3908 13.7936H47.7443C47.8857 13.7936 48.0003 13.679 48.0003 13.5377C48.0003 13.3963 47.8857 13.2817 47.7443 13.2817H16.256Z" fill="#363545"/>
<path d="M26.9116 27.8649H37.0882V30.5001L39.6231 40.2765L36.8146 41.0541L34.3686 31.6207H33.4538V41.3871H30.5462V31.6207H29.9512L27.5052 41.0541L24.6966 40.2765L26.941 31.6207H26.9116V27.8649Z" fill="#363545"/>
<path d="M30.5461 45.1438H33.4537V55.6614L31.9999 58.6664L30.5461 55.6614V45.1438Z" fill="#363545"/>
<path d="M33.4537 42.1388H30.5461V44.3923H33.4537V42.1388Z" fill="#363545"/>
<path d="M26.5643 44.6843L23.7558 43.9065L21.1219 54.0657L21.7736 57.3572L23.9304 54.8435L26.5643 44.6843Z" fill="#363545"/>
<path d="M24.5083 41.0039L27.3168 41.7816L26.7524 43.9584L23.9439 43.1806L24.5083 41.0039Z" fill="#363545"/>
<path d="M40.5638 43.9065L37.7553 44.6843L40.3892 54.8435L42.546 57.3573L43.1977 54.0657L40.5638 43.9065Z" fill="#363545"/>
<path d="M37.0028 41.7816L39.8113 41.0039L40.3757 43.1806L37.5672 43.9584L37.0028 41.7816Z" fill="#363545"/>
</svg>
