<svg width="64" height="64" viewBox="0 0 64 64" fill="none" xmlns="http://www.w3.org/2000/svg">
<path d="M5.47211 7.50493L5.58601 6.80472C5.64151 6.46354 5.84194 6.16306 6.13562 5.98075C9.12194 4.12691 12.6074 3.2 16.5921 3.2C20.5706 3.2 24.0515 4.12403 27.0347 5.97209C27.3366 6.15908 27.5397 6.47054 27.5891 6.82215L27.6851 7.50493H5.47211Z" fill="#363545"/>
<path fill-rule="evenodd" clip-rule="evenodd" d="M3.8314 7.50496H29.2353C29.584 7.50496 29.8667 7.78765 29.8667 8.13635V9.86311C29.8667 10.2118 29.584 10.4945 29.2353 10.4945H28.4318V16.5931C28.5638 16.5931 28.6709 16.7002 28.6709 16.8323V17.191C28.6709 17.3231 28.5638 17.4302 28.4318 17.4302H28.1908L27.1302 23.68C27.0522 24.14 26.6537 24.4766 26.1871 24.4766H20.1915L19.3137 27.7142L19.3435 27.7142V34.5303C19.3435 34.6624 19.2364 34.7695 19.1044 34.7695H14.0819C13.9499 34.7695 13.8428 34.6624 13.8428 34.5303V27.7142L13.8373 27.7142L12.897 24.4766H6.9976C6.53102 24.4766 6.13249 24.14 6.05443 23.68L4.99368 17.4302H4.63506C4.50297 17.4302 4.39589 17.3231 4.39589 17.191V16.8323C4.39589 16.7002 4.50297 16.5931 4.63506 16.5931H4.75464V10.4945H3.8314C3.48269 10.4945 3.20001 10.2118 3.20001 9.86311V8.13636C3.20001 7.78765 3.4827 7.50496 3.8314 7.50496ZM18.5159 17.6694H14.5509C13.5099 17.6694 12.61 18.396 12.3907 19.4137L12.3645 19.535C12.2134 20.2363 12.2134 20.9619 12.3645 21.6632L12.3907 21.7846C12.61 22.8023 13.5099 23.5289 14.5509 23.5289H18.5159C19.5569 23.5289 20.4568 22.8023 20.6761 21.7846L20.7023 21.6632C20.8534 20.9619 20.8534 20.2363 20.7023 19.535L20.6761 19.4137C20.4568 18.396 19.5569 17.6694 18.5159 17.6694ZM15.1917 28.6708H17.9946C18.3433 28.6708 18.626 28.9534 18.626 29.3021V29.9527C18.626 30.3014 18.3433 30.5841 17.9946 30.5841H15.1917C14.8429 30.5841 14.5603 30.3014 14.5603 29.9527V29.3021C14.5603 28.9534 14.8429 28.6708 15.1917 28.6708Z" fill="#363545"/>
<path d="M24.3659 24.4855H22.931L23.159 32.3972C23.1652 32.663 23.3825 32.8754 23.6484 32.8754C23.9144 32.8754 24.1317 32.663 24.1379 32.3972L24.3659 24.4855Z" fill="#363545"/>
<path d="M38.1602 35.4622L38.6812 34.3043L37.4149 31.9556C37.3685 31.8695 37.2952 31.8011 37.2062 31.7607L34.5464 30.553C34.4398 30.5046 34.3565 30.4164 34.3143 30.3072L34.1634 29.9172C34.1247 29.8171 34.1233 29.7065 34.1594 29.6055L34.6619 28.2003C34.7017 28.089 34.7839 27.998 34.8905 27.9472L35.2482 27.7768C35.3476 27.7294 35.461 27.7204 35.5667 27.7515L38.8821 28.7275C38.9631 28.7513 39.0356 28.7976 39.0914 28.8609L40.6847 30.6707C40.7756 30.7739 40.9372 30.7714 41.0248 30.6654L41.5107 30.0772C41.5919 29.9789 41.7127 29.922 41.8402 29.922H41.8624C41.9452 29.922 42.0255 29.8938 42.0901 29.842C42.1547 29.7903 42.235 29.7621 42.3178 29.7621H42.5105C42.5727 29.7621 42.6321 29.788 42.6744 29.8336L43.4913 30.7145C43.5674 30.7964 43.6099 30.9039 43.6106 31.0157L43.7079 46.4995L44.3274 48.3532H50.606L51.2254 46.4995L51.3228 31.0157C51.3235 30.9039 51.366 30.7964 51.442 30.7145L52.259 29.8336C52.3013 29.788 52.3607 29.7621 52.4229 29.7621H52.6156C52.6983 29.7621 52.7787 29.7903 52.8432 29.842C52.9078 29.8938 52.9881 29.922 53.0709 29.922H53.0931C53.2206 29.922 53.3415 29.9789 53.4226 30.0772L53.9086 30.6654C53.9961 30.7714 54.1578 30.7739 54.2486 30.6707L55.842 28.8609C55.8977 28.7976 55.9703 28.7513 56.0513 28.7275L59.3666 27.7515C59.4723 27.7204 59.5857 27.7294 59.6851 27.7768L60.0428 27.9472C60.1495 27.998 60.2317 28.089 60.2715 28.2003L60.7739 29.6055C60.81 29.7065 60.8086 29.8171 60.7699 29.9172L60.6191 30.3072C60.5768 30.4164 60.4935 30.5046 60.387 30.553L57.7272 31.7607C57.6382 31.8011 57.5649 31.8695 57.5185 31.9556L56.2522 34.3043L56.7732 35.4622L56.7733 54.4298L56.6136 56.4374C56.5859 56.786 56.2949 57.0547 55.9452 57.0547H53.9097V58.5168C53.9097 58.7636 53.7095 58.9638 53.4627 58.9638L52.7167 58.9637V60.4258C52.7167 60.6727 52.5165 60.8728 52.2697 60.8728H42.9026C42.6557 60.8728 42.4556 60.6727 42.4556 60.4258V58.9637L41.7093 58.9638C41.4624 58.9638 41.2623 58.7636 41.2623 58.5168V57.0547H38.9883C38.6386 57.0547 38.3476 56.786 38.3199 56.4374L38.1602 54.4298L38.1602 50.8503L39.3143 50.3769H39.3123L38.1602 50.8503V35.4622Z" fill="#363545"/>
<path fill-rule="evenodd" clip-rule="evenodd" d="M47.4665 31.2826L44.8169 31.7599L44.1257 35.22V42.1403L44.8169 45.6004L47.4665 46.0777L50.1161 45.6004L50.8073 42.1403V35.22L50.1161 31.7599L47.4665 31.2826ZM50.0915 38.9188C50.0915 40.3685 48.9163 41.5437 47.4666 41.5437C46.0169 41.5437 44.8417 40.3685 44.8417 38.9188C44.8417 37.4691 46.0169 36.2939 47.4666 36.2939C48.9163 36.2939 50.0915 37.4691 50.0915 38.9188Z" fill="#363545"/>
</svg>
