<svg width="64" height="64" viewBox="0 0 64 64" fill="none" xmlns="http://www.w3.org/2000/svg">
<path fill-rule="evenodd" clip-rule="evenodd" d="M50.965 12.6061L53.5838 12.606C54.173 12.606 54.6505 13.0836 54.6505 13.6727V16.5899C54.6505 17.179 54.173 17.6566 53.5838 17.6566H53.293L50.093 23.8747V27.9596C50.3162 27.9596 50.4971 28.1405 50.4971 28.3636V28.9697C50.4971 29.1928 50.3162 29.3737 50.093 29.3737H49.686L47.8942 39.9322C47.7624 40.7093 47.0891 41.278 46.3009 41.278H38.3052L36.8224 46.7475L36.8728 46.7475V58.2626C36.8728 58.4858 36.6919 58.6666 36.4687 58.6666H27.9839C27.7607 58.6666 27.5798 58.4858 27.5798 58.2626V46.7475L27.5706 46.7475L25.982 41.278H24.0237V39.1446H22.914L22.5943 51.4763C22.5851 51.9157 22.2621 52.2667 21.8667 52.2667C21.4713 52.2667 21.1482 51.9157 21.139 51.4763L20.8193 39.1446H20.1072V41.278H18.1489C17.3607 41.278 16.6875 40.7093 16.5556 39.9322L14.7635 29.3737H14.1577C13.9345 29.3737 13.7536 29.1928 13.7536 28.9697V28.3636C13.7536 28.1405 13.9345 27.9596 14.1577 27.9596H14.3597V23.8747L11.1597 17.6566H10.6667C10.0776 17.6566 9.60001 17.179 9.60001 16.5899V13.6727C9.60001 13.0836 10.0776 12.606 10.6667 12.606H13.4385L13.6309 11.4231C13.7247 10.8467 14.0633 10.3391 14.5594 10.0311C19.6045 6.89926 25.4929 5.33333 32.2246 5.33333C38.9459 5.33333 44.8264 6.89438 49.8662 10.0165C50.3762 10.3324 50.7193 10.8586 50.8029 11.4526L50.965 12.6061ZM29.8666 29.8667H36.237C37.403 29.8667 38.353 30.8029 38.3701 31.9688L38.3999 34.0045L38.3683 36.2961C38.3523 37.4627 37.4019 38.4 36.2352 38.4H29.8666C28.6884 38.4 27.7333 37.4449 27.7333 36.2667V32C27.7333 30.8218 28.6884 29.8667 29.8666 29.8667ZM34.594 48.3636H29.8586C29.2695 48.3636 28.7919 48.8412 28.7919 49.4303V50.5293C28.7919 51.1184 29.2695 51.596 29.8586 51.596H34.594C35.1831 51.596 35.6606 51.1184 35.6606 50.5293V49.4303C35.6606 48.8412 35.1831 48.3636 34.594 48.3636Z" fill="#363545"/>
</svg>
