<svg width="64" height="64" viewBox="0 0 64 64" fill="none" xmlns="http://www.w3.org/2000/svg">
<path d="M5.47208 7.50493L5.58599 6.80472C5.64149 6.46354 5.84191 6.16306 6.1356 5.98075C9.12191 4.12691 12.6074 3.2 16.5921 3.2C20.5706 3.2 24.0515 4.12403 27.0347 5.97209C27.3365 6.15908 27.5397 6.47054 27.5891 6.82215L27.6851 7.50493H5.47208Z" fill="#363545"/>
<path fill-rule="evenodd" clip-rule="evenodd" d="M3.8314 7.50496H29.2353C29.584 7.50496 29.8667 7.78764 29.8667 8.13635V9.86311C29.8667 10.2118 29.584 10.4945 29.2353 10.4945H28.4318V16.5931C28.5639 16.5931 28.6709 16.7002 28.6709 16.8322V17.191C28.6709 17.3231 28.5639 17.4302 28.4318 17.4302H28.1908L27.1303 23.68C27.0522 24.14 26.6537 24.4766 26.1871 24.4766H20.1915L19.3137 27.7142L19.3435 27.7142V34.5303C19.3435 34.6624 19.2365 34.7695 19.1044 34.7695H14.0819C13.9499 34.7695 13.8428 34.6624 13.8428 34.5303V27.7142L13.8374 27.7142L12.897 24.4766H6.99761C6.53103 24.4766 6.13251 24.14 6.05445 23.68L4.9937 17.4302H4.63507C4.50299 17.4302 4.39591 17.3231 4.39591 17.191V16.8322C4.39591 16.7002 4.50299 16.5931 4.63507 16.5931H4.75466V10.4945H3.8314C3.48269 10.4945 3.20001 10.2118 3.20001 9.86311V8.13635C3.20001 7.78764 3.4827 7.50496 3.8314 7.50496ZM18.5159 17.6694H14.551C13.5099 17.6694 12.61 18.396 12.3907 19.4137L12.3645 19.535C12.2134 20.2363 12.2134 20.9619 12.3645 21.6632L12.3907 21.7845C12.61 22.8022 13.5099 23.5289 14.551 23.5289H18.5159C19.557 23.5289 20.4568 22.8022 20.6762 21.7845L20.7023 21.6632C20.8535 20.9619 20.8535 20.2363 20.7023 19.535L20.6762 19.4137C20.4568 18.396 19.557 17.6694 18.5159 17.6694ZM15.1917 28.6708H17.9947C18.3434 28.6708 18.626 28.9534 18.626 29.3022V29.9527C18.626 30.3014 18.3434 30.5841 17.9947 30.5841H15.1917C14.843 30.5841 14.5603 30.3014 14.5603 29.9527V29.3022C14.5603 28.9534 14.843 28.6708 15.1917 28.6708Z" fill="#363545"/>
<path d="M24.366 24.4855H22.931L23.159 32.3972C23.1652 32.663 23.3825 32.8754 23.6485 32.8754C23.9144 32.8754 24.1318 32.663 24.1379 32.3972L24.366 24.4855Z" fill="#363545"/>
<path fill-rule="evenodd" clip-rule="evenodd" d="M40.1067 33.7067C40.1067 32.7641 40.8708 32 41.8134 32H46.9334C47.876 32 48.6401 32.7641 48.6401 33.7067V47.36C48.6401 48.3026 47.876 49.0667 46.9334 49.0667H41.8134C40.8708 49.0667 40.1067 48.3026 40.1067 47.36V33.7067ZM47.7868 40.5333C47.7868 42.4185 46.2586 43.9467 44.3734 43.9467C42.4883 43.9467 40.9601 42.4185 40.9601 40.5333C40.9601 38.6482 42.4883 37.12 44.3734 37.12C46.2586 37.12 47.7868 38.6482 47.7868 40.5333Z" fill="#363545"/>
<path fill-rule="evenodd" clip-rule="evenodd" d="M54.5859 19.6115C54.6013 19.38 54.7937 19.2 55.0258 19.2C55.2693 19.2 55.4667 19.3974 55.4667 19.6409V32.4267C55.4667 33.1336 54.8936 33.7067 54.1867 33.7067L54.1715 33.6461L54.6133 41.8265L53.7988 58.1174C53.7768 58.5571 53.4239 58.908 52.9841 58.9273L50.0989 59.0544C50.2521 58.9002 50.3467 58.6877 50.3467 58.4532V53.3332C50.3467 52.8619 49.9647 52.4798 49.4934 52.4798H39.2534C38.7821 52.4798 38.4001 52.8619 38.4001 53.3332V58.4532C38.4001 58.6877 38.4947 58.9002 38.6479 59.0544L35.7626 58.9273C35.3228 58.908 34.9699 58.5572 34.9479 58.1174L34.1333 41.8265L34.9487 26.7298C34.9708 26.3216 35.2793 25.9863 35.6843 25.9305L40.6465 25.2469C43.1194 24.9062 45.6273 24.9062 48.1002 25.2469L53.0624 25.9305C53.4674 25.9863 53.7759 26.3216 53.798 26.7298L53.9382 29.3265L54.5859 19.6115ZM49.4933 32.4397V49.5063H39.2533V32.4397L38.2762 30.7297C37.9511 30.1608 38.3619 29.453 39.0171 29.453H49.7295C50.3847 29.453 50.7955 30.1608 50.4704 30.7297L49.4933 32.4397Z" fill="#363545"/>
<path fill-rule="evenodd" clip-rule="evenodd" d="M40.1066 53.3333C39.6354 53.3333 39.2533 53.7154 39.2533 54.1867V58.4533C39.2533 58.9246 39.6354 59.3067 40.1066 59.3067H48.64C49.1113 59.3067 49.4933 58.9246 49.4933 58.4533V54.1867C49.4933 53.7154 49.1113 53.3333 48.64 53.3333H40.1066ZM46.08 54.1867C45.6087 54.1867 45.2267 54.5687 45.2267 55.04V55.8933C45.2267 56.3646 45.6087 56.7467 46.08 56.7467H47.7867C48.2579 56.7467 48.64 56.3646 48.64 55.8933V55.04C48.64 54.5687 48.2579 54.1867 47.7867 54.1867H46.08Z" fill="#363545"/>
<path d="M39.2533 60.0533L37.5466 59.7333L39.2533 61.8667H49.4933L51.2 59.7333L49.4933 60.0533H39.2533Z" fill="#363545"/>
</svg>
