<svg width="64" height="64" viewBox="0 0 64 64" fill="none" xmlns="http://www.w3.org/2000/svg">
<path fill-rule="evenodd" clip-rule="evenodd" d="M50.965 12.6061L53.5838 12.606C54.1729 12.606 54.6505 13.0836 54.6505 13.6727V16.5899C54.6505 17.179 54.1729 17.6566 53.5838 17.6566H52.2263V27.9596C52.4495 27.9596 52.6304 28.1405 52.6304 28.3636V28.9697C52.6304 29.1928 52.4495 29.3737 52.2263 29.3737H51.8193L50.0276 39.9322C49.8957 40.7093 49.2224 41.278 48.4342 41.278H38.3052L36.8223 46.7475L36.8727 46.7475V58.2626C36.8727 58.4858 36.6918 58.6666 36.4687 58.6666H27.9838C27.7607 58.6666 27.5798 58.4858 27.5798 58.2626V46.7475L27.5706 46.7475L25.982 41.278H16.0156C15.2274 41.278 14.5541 40.7093 14.4222 39.9322L12.6302 29.3737H12.0243C11.8012 29.3737 11.6203 29.1928 11.6203 28.9697V28.3636C11.6203 28.1405 11.8012 27.9596 12.0243 27.9596H12.2263V17.6566H10.6666C10.0775 17.6566 9.59998 17.179 9.59998 16.5899V13.6727C9.59998 13.0836 10.0775 12.606 10.6666 12.606H13.4385L13.6309 11.4231C13.7246 10.8467 14.0632 10.3391 14.5594 10.0311C19.6045 6.89926 25.4929 5.33333 32.2246 5.33333C38.9458 5.33333 44.8264 6.89438 49.8662 10.0165C50.3761 10.3324 50.7193 10.8586 50.8028 11.4526L50.965 12.6061ZM28.7762 29.7778H35.4745C37.2333 29.7778 38.7535 31.0053 39.124 32.7246L39.1682 32.9295C39.4236 34.1144 39.4236 35.3401 39.1682 36.525L39.124 36.7299C38.7535 38.4492 37.2333 39.6768 35.4745 39.6768H28.7762C27.0174 39.6768 25.4972 38.4492 25.1266 36.7299L25.0825 36.525C24.8271 35.3401 24.8271 34.1144 25.0825 32.9295L25.1266 32.7246C25.4972 31.0053 27.0174 29.7778 28.7762 29.7778ZM34.5939 48.3636H29.8586C29.2695 48.3636 28.7919 48.8412 28.7919 49.4303V50.5293C28.7919 51.1184 29.2695 51.596 29.8586 51.596H34.5939C35.183 51.596 35.6606 51.1184 35.6606 50.5293V49.4303C35.6606 48.8412 35.183 48.3636 34.5939 48.3636Z" fill="#363545"/>
<path d="M43.3186 54.6588L42.9333 41.2929H45.3576L44.9723 54.6588C44.9619 55.108 44.5947 55.4667 44.1454 55.4667C43.6961 55.4667 43.329 55.108 43.3186 54.6588Z" fill="#363545"/>
</svg>
