<svg width="64" height="64" viewBox="0 0 64 64" fill="none" xmlns="http://www.w3.org/2000/svg">
<path d="M14.3531 11.5107C13.7634 11.7156 13.2176 12.0299 12.7445 12.4371L10.5655 14.3127C9.81578 14.9581 9.3752 15.8913 9.35338 16.8803L9.29675 19.4482H54.7021L54.6454 16.8803C54.6236 15.8913 54.1831 14.9581 53.4333 14.3127L51.2544 12.4371C50.7812 12.0299 50.2354 11.7156 49.6457 11.5107C38.2164 7.54088 25.7824 7.54088 14.3531 11.5107Z" fill="#363545"/>
<path fill-rule="evenodd" clip-rule="evenodd" d="M9.8299 22.5947C9.50107 22.0866 9.31095 21.5031 9.27592 20.9021H28.437L29.2069 22.5528H34.8008L35.5706 20.9021H54.7229C54.6879 21.5031 54.4978 22.0866 54.1689 22.5947L52.6449 24.9497L52.2236 28.2052V28.5746C52.2236 30.8699 50.698 32.8313 48.5752 33.456L48.7792 35.6385C48.819 36.0649 48.4836 36.4331 48.0554 36.4331H44.8764C44.4482 36.4331 44.1127 36.0649 44.1526 35.6385L44.3154 33.8963L36.2133 34.5225V55.4648H27.7866V34.5399L21.9118 34.0795L21.4513 50.3546C21.4384 50.9186 20.9858 51.369 20.4319 51.369C19.878 51.369 19.4253 50.9186 19.4125 50.3546L18.9453 33.847L16.4662 33.6527C13.8182 33.4452 11.7752 31.2358 11.7752 28.5797V28.2052L11.3539 24.9497L9.8299 22.5947ZM26.2615 25.701C25.9403 25.701 25.68 25.9613 25.68 26.2825V30.8432C25.68 31.1644 25.9403 31.4248 26.2615 31.4248H37.7385C38.0597 31.4248 38.3201 31.1644 38.3201 30.8432V26.2825C38.3201 25.9613 38.0597 25.701 37.7385 25.701H26.2615Z" fill="#363545"/>
<path d="M8.89681 19.8288C8.69607 19.8288 8.53334 19.9915 8.53334 20.1923C8.53334 20.393 8.69607 20.5558 8.89681 20.5558H28.4918L29.3316 22.2671H34.6685L35.5083 20.5558H55.1035C55.3042 20.5558 55.4669 20.393 55.4669 20.1923C55.4669 19.9915 55.3042 19.8288 55.1035 19.8288H8.89681Z" fill="#363545"/>
</svg>
