<svg width="64" height="64" viewBox="0 0 64 64" fill="none" xmlns="http://www.w3.org/2000/svg">
<path d="M24.6706 25.318C24.1645 25.318 23.7582 25.7355 23.7719 26.2413L24.1754 41.1177C24.1886 41.6045 24.5871 41.9923 25.0741 41.9923H38.9273C39.4142 41.9923 39.8127 41.6045 39.8259 41.1177L40.2294 26.2413C40.2431 25.7355 39.8368 25.318 39.3308 25.318H24.6706Z" fill="#363545"/>
<path fill-rule="evenodd" clip-rule="evenodd" d="M22.8646 7.32864C22.9516 6.85914 23.3019 6.48214 23.7638 6.36117L26.518 5.63984L31.9999 5.33333L37.4819 5.63984L40.236 6.36117C40.6979 6.48214 41.0483 6.85914 41.1353 7.32864L41.3035 8.23734C41.4179 8.85572 41.2305 9.49161 40.7988 9.94898L40.1305 10.6571V13.5287L39.3914 14.3678V17.9655L39.9258 18.3506C40.0543 18.4432 40.1305 18.592 40.1305 18.7504V21.364L41.4142 23.1473C41.5404 23.3226 41.6055 23.5346 41.5995 23.7506L41.0048 44.9997C40.9979 45.2441 40.8129 45.4466 40.5701 45.4753L39.6383 45.5855V46.7416C39.6383 46.9748 39.4748 47.176 39.2466 47.2238L39.2177 47.2299C37.9514 47.4952 36.6439 47.4952 35.3777 47.2299L35.3488 47.2238C35.1205 47.176 34.9571 46.9748 34.9571 46.7416V46.1077C34.8339 46.1172 34.7108 46.1261 34.5876 46.1343V57.6811C34.5876 58.2254 34.1464 58.6666 33.6021 58.6666H29.9064C29.3621 58.6666 28.9209 58.2254 28.9209 57.6811V46.0822C28.5752 46.0527 28.2299 46.0183 27.8849 45.9792L23.432 45.4735C23.1882 45.4459 23.0019 45.243 22.9951 44.9977L22.4004 23.7506C22.3944 23.5346 22.4595 23.3226 22.5857 23.1473L23.8694 21.364V18.7504C23.8694 18.592 23.9455 18.4432 24.0741 18.3506L24.6085 17.9655V14.3678L23.8694 13.5287V10.6571L23.2011 9.94898C22.7694 9.49161 22.5819 8.85572 22.6964 8.23734L22.8646 7.32864ZM34.3411 15.5096C34.3411 16.7961 33.2931 17.8391 32.0004 17.8391C30.7078 17.8391 29.6598 16.7961 29.6598 15.5096C29.6598 14.223 30.7078 13.1801 32.0004 13.1801C33.2931 13.1801 34.3411 14.223 34.3411 15.5096ZM37.1743 17.8391C38.1948 17.8391 39.0222 16.7961 39.0222 15.5096C39.0222 14.223 38.1948 13.1801 37.1743 13.1801C36.1538 13.1801 35.3264 14.223 35.3264 15.5096C35.3264 16.7961 36.1538 17.8391 37.1743 17.8391ZM28.6743 15.5096C28.6743 16.7961 27.847 17.8391 26.8265 17.8391C25.8059 17.8391 24.9786 16.7961 24.9786 15.5096C24.9786 14.223 25.8059 13.1801 26.8265 13.1801C27.847 13.1801 28.6743 14.223 28.6743 15.5096ZM24.0202 24.5823C23.4655 24.5823 23.02 25.0401 23.0351 25.5946L23.4743 41.7692C23.4888 42.3028 23.9256 42.7279 24.4595 42.7279H39.5415C40.0754 42.7279 40.5122 42.3028 40.5267 41.7692L40.9659 25.5946C40.981 25.0401 40.5355 24.5823 39.9808 24.5823H24.0202Z" fill="#363545"/>
</svg>
