<svg width="64" height="64" viewBox="0 0 64 64" fill="none" xmlns="http://www.w3.org/2000/svg">
<path d="M42 10.5946C42 9.16164 40.7359 8 39.1765 8H20.8235C19.2641 8 18 9.16164 18 10.5946V14.4865H42V10.5946Z" fill="#363545"/>
<path d="M18.0002 53.4345L42 39.9571V32.6486H18V53.4054L18.0002 53.4345Z" fill="#363545"/>
<path d="M41.9712 53.4054V42.9979L19.4102 55.6672C19.8193 55.8791 20.2917 56 20.7947 56H39.1477C40.7071 56 41.9712 54.8384 41.9712 53.4054Z" fill="#363545"/>
<path d="M22.2338 27.4595V14.4865H19.4102V27.4595H22.2338Z" fill="#363545"/>
<path fill-rule="evenodd" clip-rule="evenodd" d="M29.9953 25.856C27.2648 25.856 25.0513 23.6425 25.0513 20.912C25.0513 18.1815 27.2648 15.968 29.9953 15.968C32.7258 15.968 34.9393 18.1815 34.9393 20.912C34.9393 23.6425 32.7258 25.856 29.9953 25.856ZM32.0958 20.912C32.0958 22.0784 31.1503 23.024 29.9838 23.024C28.8174 23.024 27.8718 22.0784 27.8718 20.912C27.8718 19.7456 28.8174 18.8 29.9838 18.8C31.1503 18.8 32.0958 19.7456 32.0958 20.912Z" fill="#363545"/>
<path d="M18 27.4595H42V30.0541H18V27.4595Z" fill="#363545"/>
<path d="M40.5679 27.4595V14.4865H37.7444V27.4595H40.5679Z" fill="#363545"/>
</svg>
