<svg width="64" height="64" viewBox="0 0 64 64" fill="none" xmlns="http://www.w3.org/2000/svg">
<path d="M22.5537 5.33333C22.2416 5.33333 21.9887 5.58627 21.9887 5.8983V17.9322H21.5367C21.415 15.413 21.2187 13.1506 20.9477 11.145C20.7135 9.41135 20.3094 8.20721 19.7354 7.53261C19.5851 7.356 19.3649 7.25423 19.133 7.25423H17.5379C17.3332 7.25423 17.1366 7.33355 16.9892 7.47551L16.2423 8.19494C16.0875 8.34404 16 8.5497 16 8.76462V50.7282C16 50.8602 17.5543 55.0804 18.2849 57.0643L18.2862 57.0678C18.382 57.3279 18.4636 57.5493 18.5255 57.7179C18.6046 57.9329 18.8046 58.0835 19.0331 58.0988L24.7571 58.483L30.8588 58.6667L36.791 58.483L42.3595 58.0986C42.5809 58.0833 42.7728 57.9397 42.8501 57.7317L45.1948 51.4209C45.2416 51.2949 45.2655 51.1617 45.2655 51.0273V22.5665C45.2655 22.455 45.2325 22.346 45.1707 22.2531L45.0393 22.0561C44.0635 20.5925 42.9194 19.2484 41.6304 18.0515L41.3512 17.7922C41.2522 17.7003 41.1235 17.6469 40.9885 17.6417L38.3456 17.54C38.2888 17.5378 38.232 17.5442 38.177 17.559L36.8746 17.9097C36.8252 17.923 36.791 17.9677 36.791 18.0188V41.435L36.2436 44.9678C36.201 45.2432 35.9639 45.4463 35.6853 45.4463H25.9757C25.6971 45.4463 25.4601 45.2432 25.4174 44.9679L24.8701 41.435V20.0791L23.5706 19.1186V18.0452C23.5706 17.9828 23.52 17.9322 23.4576 17.9322H23.1186V5.8983C23.1186 5.58627 22.8657 5.33333 22.5537 5.33333Z" fill="#363545"/>
<path fill-rule="evenodd" clip-rule="evenodd" d="M26.3955 21.7579C26.3955 20.8619 27.1218 20.1356 28.0178 20.1356H33.696C34.5919 20.1356 35.3183 20.8619 35.3183 21.7579V42.8482C35.3183 43.7442 34.5919 44.4705 33.696 44.4705H28.0178C27.1218 44.4705 26.3955 43.7442 26.3955 42.8482V21.7579ZM27.2067 25.8137C27.2067 24.9178 27.933 24.1914 28.829 24.1914H32.8848C33.7808 24.1914 34.5072 24.9178 34.5072 25.8137V33.1142C34.5072 34.0102 33.7808 34.7365 32.8848 34.7365H28.829C27.933 34.7365 27.2067 34.0102 27.2067 33.1142V25.8137ZM30.8569 41.2258C31.7529 41.2258 32.4793 40.6811 32.4793 40.0091C32.4793 39.3371 31.7529 38.7924 30.8569 38.7924C29.9609 38.7924 29.2346 39.3371 29.2346 40.0091C29.2346 40.6811 29.9609 41.2258 30.8569 41.2258Z" fill="#363545"/>
</svg>
