<svg width="64" height="64" viewBox="0 0 64 64" fill="none" xmlns="http://www.w3.org/2000/svg">
<path fill-rule="evenodd" clip-rule="evenodd" d="M17.9857 15.9084L17.1472 17.7719V42.5369L19.0014 41.7749H19.0047L17.1472 42.5369L17.1473 48.2976L17.4043 51.5285C17.4489 52.0895 17.9172 52.522 18.48 52.522H22.1396V54.875C22.1396 55.2723 22.4617 55.5943 22.859 55.5943L24.0601 55.5943V57.9473C24.0601 58.3446 24.3822 58.6667 24.7795 58.6667H39.8545C40.2518 58.6667 40.5739 58.3446 40.5739 57.9473V55.5943L41.7745 55.5943C42.1718 55.5943 42.4939 55.2723 42.4939 54.875V52.522H45.7699C46.3326 52.522 46.8009 52.0895 46.8455 51.5285L47.1025 48.2976L47.1023 17.7719L46.2639 15.9084L48.3018 12.1284C48.3764 11.99 48.4944 11.8798 48.6376 11.8148L52.9182 9.87121C53.0897 9.79335 53.2238 9.65134 53.2917 9.47569L53.5345 8.84798C53.5968 8.68694 53.5991 8.50886 53.5409 8.34627L52.7323 6.08477C52.6683 5.90573 52.536 5.75932 52.3644 5.67753L51.7887 5.40327C51.6287 5.32704 51.4462 5.31256 51.2762 5.36261L45.9405 6.93327C45.8102 6.97162 45.6934 7.04607 45.6037 7.14801L43.0394 10.0607C42.8932 10.2268 42.6331 10.2227 42.4921 10.0521L41.7101 9.10542C41.5794 8.94723 41.385 8.85564 41.1798 8.85564H41.144C41.0108 8.85564 40.8816 8.81026 40.7776 8.72698C40.6737 8.6437 40.5444 8.59832 40.4112 8.59832H40.1011C40.001 8.59832 39.9054 8.64003 39.8374 8.71342L38.5225 10.1311C38.4002 10.263 38.3317 10.4359 38.3306 10.6158L38.174 35.5349L37.1771 38.5182H27.0725L26.0756 35.5349L25.919 10.6158C25.9178 10.4359 25.8494 10.263 25.7271 10.1311L24.4122 8.71342C24.3442 8.64003 24.2486 8.59832 24.1485 8.59832H23.8384C23.7051 8.59832 23.5759 8.6437 23.472 8.72698C23.368 8.81026 23.2388 8.85564 23.1056 8.85564H23.0698C22.8646 8.85564 22.6702 8.94723 22.5395 9.10542L21.7575 10.0521C21.6165 10.2227 21.3564 10.2268 21.2102 10.0607L18.6459 7.14801C18.5562 7.04607 18.4394 6.97162 18.3091 6.93327L12.9734 5.36261C12.8034 5.31256 12.6209 5.32704 12.4609 5.40327L11.8852 5.67753C11.7136 5.75932 11.5813 5.90573 11.5173 6.08477L10.7087 8.34627C10.6505 8.50886 10.6528 8.68694 10.7151 8.84798L10.9579 9.47569C11.0258 9.65134 11.1599 9.79335 11.3314 9.87121L15.612 11.8148C15.7552 11.8798 15.8731 11.99 15.9478 12.1284L17.9857 15.9084Z" fill="#363545"/>
<path fill-rule="evenodd" clip-rule="evenodd" d="M27.8603 11.8135L32.1245 11.0454L36.3887 11.8135L37.5011 17.3821V28.5193L36.3887 34.088L32.1245 34.856L27.8603 34.088L26.7479 28.5193V17.3821L27.8603 11.8135ZM32.1247 27.5593C34.4578 27.5593 36.3491 25.6679 36.3491 23.3348C36.3491 21.0017 34.4578 19.1103 32.1247 19.1103C29.7916 19.1103 27.9002 21.0017 27.9002 23.3348C27.9002 25.6679 29.7916 27.5593 32.1247 27.5593Z" fill="#363545"/>
</svg>
