<svg width="64" height="64" viewBox="0 0 64 64" fill="none" xmlns="http://www.w3.org/2000/svg">
<path fill-rule="evenodd" clip-rule="evenodd" d="M28.8001 21.3333C27.6219 21.3333 26.6667 22.2885 26.6667 23.4667V40.5333C26.6667 41.7115 27.6219 42.6667 28.8001 42.6667H35.2001C36.3783 42.6667 37.3334 41.7115 37.3334 40.5333V23.4667C37.3334 22.2885 36.3783 21.3333 35.2001 21.3333H28.8001ZM32.0001 36.2667C34.3565 36.2667 36.2668 34.3564 36.2668 32C36.2668 29.6436 34.3565 27.7333 32.0001 27.7333C29.6437 27.7333 27.7334 29.6436 27.7334 32C27.7334 34.3564 29.6437 36.2667 32.0001 36.2667Z" fill="#363545"/>
<path fill-rule="evenodd" clip-rule="evenodd" d="M44.7657 5.84776C44.785 5.55827 45.0254 5.33333 45.3156 5.33333C45.6199 5.33333 45.8666 5.58006 45.8666 5.88442V21.8667C45.8666 22.7503 45.1503 23.4667 44.2666 23.4667L44.2477 23.3911L44.8 33.6165L43.7818 53.9802C43.7543 54.5298 43.3132 54.9683 42.7634 54.9926L39.1571 55.1514C39.3485 54.9586 39.4667 54.6931 39.4667 54.4V48C39.4667 47.4109 38.9891 46.9333 38.4 46.9333H25.6C25.0109 46.9333 24.5334 47.4109 24.5334 48V54.4C24.5334 54.6931 24.6516 54.9586 24.843 55.1514L21.2366 54.9926C20.6868 54.9683 20.2457 54.5298 20.2182 53.9802L19.2 33.6165L20.2192 14.7457C20.2468 14.2354 20.6324 13.8163 21.1387 13.7465L27.3415 12.892C30.4326 12.4661 33.5675 12.4661 36.6586 12.892L42.8613 13.7465C43.3676 13.8163 43.7533 14.2354 43.7808 14.7457L43.9561 17.9913L44.7657 5.84776ZM38.4 21.8832V43.2165H25.6V21.8832L24.3786 19.7457C23.9722 19.0346 24.4857 18.1498 25.3047 18.1498H38.6952C39.5142 18.1498 40.0277 19.0346 39.6214 19.7457L38.4 21.8832Z" fill="#363545"/>
<path fill-rule="evenodd" clip-rule="evenodd" d="M26.6666 48C26.0775 48 25.6 48.4776 25.6 49.0667V54.4C25.6 54.9891 26.0775 55.4667 26.6666 55.4667H37.3333C37.9224 55.4667 38.4 54.9891 38.4 54.4V49.0667C38.4 48.4776 37.9224 48 37.3333 48H26.6666ZM34.1334 49.0667C33.5442 49.0667 33.0667 49.5442 33.0667 50.1333V51.2C33.0667 51.7891 33.5442 52.2667 34.1334 52.2667H36.2667C36.8558 52.2667 37.3334 51.7891 37.3334 51.2V50.1333C37.3334 49.5442 36.8558 49.0667 36.2667 49.0667H34.1334Z" fill="#363545"/>
<path d="M25.5999 56.4L23.4666 56L25.5999 58.6666H38.3999L40.5333 56L38.3999 56.4H25.5999Z" fill="#363545"/>
</svg>
