<svg width="64" height="64" viewBox="0 0 64 64" fill="none" xmlns="http://www.w3.org/2000/svg">
<path fill-rule="evenodd" clip-rule="evenodd" d="M10.2401 16.64C10.2401 15.6974 11.0042 14.9333 11.9467 14.9333H17.0667C18.0093 14.9333 18.7734 15.6974 18.7734 16.64V30.2933C18.7734 31.2359 18.0093 32 17.0667 32H11.9467C11.0042 32 10.2401 31.2359 10.2401 30.2933V16.64ZM17.9201 23.4667C17.9201 25.3518 16.3919 26.88 14.5067 26.88C12.6216 26.88 11.0934 25.3518 11.0934 23.4667C11.0934 21.5815 12.6216 20.0533 14.5067 20.0533C16.3919 20.0533 17.9201 21.5815 17.9201 23.4667Z" fill="#363545"/>
<path fill-rule="evenodd" clip-rule="evenodd" d="M24.7192 2.54488C24.7347 2.31329 24.927 2.13333 25.1591 2.13333C25.4026 2.13333 25.6 2.33072 25.6 2.5742V15.36C25.6 16.0669 25.0269 16.64 24.32 16.64L24.3049 16.5795L24.7467 24.7598L23.9321 41.0508C23.9101 41.4905 23.5572 41.8413 23.1174 41.8607L20.2322 41.9878C20.3854 41.8335 20.48 41.6211 20.48 41.3865V36.2665C20.48 35.7952 20.098 35.4132 19.6267 35.4132H9.3867C8.91542 35.4132 8.53337 35.7952 8.53337 36.2665V41.3865C8.53337 41.6211 8.628 41.8335 8.78116 41.9878L5.89593 41.8607C5.45609 41.8413 5.1032 41.4905 5.08121 41.0508L4.26666 24.7598L5.08202 9.66317C5.10407 9.2549 5.41261 8.91964 5.81764 8.86384L10.7798 8.1802C13.2527 7.83951 15.7606 7.83951 18.2335 8.1802L23.1957 8.86384C23.6007 8.91964 23.9093 9.2549 23.9313 9.66317L24.0716 12.2598L24.7192 2.54488ZM19.6266 15.373V32.4397H9.38661V15.373L8.40949 13.663C8.08442 13.0942 8.49518 12.3863 9.15039 12.3863H19.8628C20.518 12.3863 20.9288 13.0942 20.6037 13.663L19.6266 15.373Z" fill="#363545"/>
<path d="M37.0935 35.4622L37.6145 34.3043L36.3482 31.9555C36.3018 31.8695 36.2285 31.8011 36.1395 31.7607L33.4797 30.553C33.3732 30.5046 33.2898 30.4164 33.2476 30.3072L33.0968 29.9172C33.0581 29.8171 33.0566 29.7065 33.0928 29.6055L33.5952 28.2002C33.635 28.089 33.7172 27.998 33.8238 27.9472L34.1815 27.7768C34.281 27.7294 34.3944 27.7204 34.5 27.7515L37.8154 28.7275C37.8964 28.7513 37.9689 28.7976 38.0247 28.8609L39.618 30.6707C39.7089 30.7739 39.8705 30.7714 39.9581 30.6654L40.444 30.0772C40.5252 29.9789 40.646 29.922 40.7735 29.922H40.7958C40.8785 29.922 40.9588 29.8938 41.0234 29.842C41.088 29.7903 41.1683 29.7621 41.2511 29.7621H41.4438C41.506 29.7621 41.5654 29.788 41.6077 29.8336L42.4247 30.7145C42.5007 30.7964 42.5432 30.9039 42.5439 31.0157L42.6413 46.4995L43.2607 48.3532H49.5393L50.1587 46.4995L50.2561 31.0157C50.2568 30.9039 50.2993 30.7964 50.3753 30.7145L51.1923 29.8336C51.2346 29.788 51.294 29.7621 51.3562 29.7621H51.5489C51.6317 29.7621 51.712 29.7903 51.7766 29.842C51.8412 29.8938 51.9215 29.922 52.0042 29.922H52.0265C52.1539 29.922 52.2748 29.9789 52.356 30.0772L52.8419 30.6654C52.9295 30.7714 53.0911 30.7739 53.182 30.6707L54.7753 28.8609C54.8311 28.7976 54.9036 28.7513 54.9846 28.7275L58.3 27.7515C58.4056 27.7204 58.519 27.7294 58.6185 27.7768L58.9762 27.9472C59.0828 27.998 59.165 28.089 59.2048 28.2002L59.7072 29.6055C59.7434 29.7065 59.7419 29.8171 59.7032 29.9172L59.5524 30.3072C59.5102 30.4164 59.4268 30.5046 59.3203 30.553L56.6605 31.7607C56.5715 31.8011 56.4982 31.8695 56.4518 31.9555L55.1855 34.3043L55.7065 35.4622L55.7066 54.4298L55.5469 56.4374C55.5192 56.786 55.2282 57.0547 54.8786 57.0547H52.843V58.5168C52.843 58.7636 52.6428 58.9637 52.396 58.9637L51.65 58.9637V60.4258C51.65 60.6727 51.4498 60.8728 51.203 60.8728H41.8359C41.589 60.8728 41.3889 60.6727 41.3889 60.4258V58.9637L40.6426 58.9637C40.3957 58.9637 40.1956 58.7636 40.1956 58.5168V57.0547H37.9216C37.5719 57.0547 37.2809 56.786 37.2532 56.4374L37.0935 54.4298L37.0935 50.8503L38.2476 50.3769H38.2456L37.0935 50.8503V35.4622Z" fill="#363545"/>
<path fill-rule="evenodd" clip-rule="evenodd" d="M46.3998 31.2826L43.7502 31.7599L43.059 35.22V42.1403L43.7502 45.6004L46.3998 46.0777L49.0494 45.6004L49.7406 42.1403V35.22L49.0494 31.7599L46.3998 31.2826ZM49.0248 38.9188C49.0248 40.3685 47.8496 41.5437 46.3999 41.5437C44.9502 41.5437 43.775 40.3685 43.775 38.9188C43.775 37.4691 44.9502 36.2939 46.3999 36.2939C47.8496 36.2939 49.0248 37.4691 49.0248 38.9188Z" fill="#363545"/>
<path fill-rule="evenodd" clip-rule="evenodd" d="M10.24 36.2667C9.76867 36.2667 9.38662 36.6487 9.38662 37.12V41.3867C9.38662 41.8579 9.76867 42.24 10.24 42.24H18.7733C19.2446 42.24 19.6266 41.8579 19.6266 41.3867V37.12C19.6266 36.6487 19.2446 36.2667 18.7733 36.2667H10.24ZM16.2133 37.12C15.742 37.12 15.36 37.502 15.36 37.9733V38.8267C15.36 39.2979 15.742 39.68 16.2133 39.68H17.92C18.3913 39.68 18.7733 39.2979 18.7733 38.8267V37.9733C18.7733 37.502 18.3913 37.12 17.92 37.12H16.2133Z" fill="#363545"/>
<path d="M9.38661 42.9867L7.67994 42.6667L9.38661 44.8H19.6266L21.3333 42.6667L19.6266 42.9867H9.38661Z" fill="#363545"/>
</svg>
