<svg width="64" height="64" viewBox="0 0 64 64" fill="none" xmlns="http://www.w3.org/2000/svg">
<path d="M44.7657 5.84775C44.785 5.55826 45.0254 5.33331 45.3156 5.33331C45.6199 5.33331 45.8666 5.58004 45.8666 5.8844V21.8666C45.8666 22.7503 45.1503 23.4666 44.2666 23.4666L44.2477 23.391L44.8 33.6165L44.4161 41.2948L38.4 35.2786V21.8832L39.6214 19.7457C40.0277 19.0346 39.5142 18.1498 38.6952 18.1498H25.3047C24.4857 18.1498 23.9722 19.0346 24.3786 19.7457L25.6 21.8832V22.4786L20.0987 16.9774L20.2192 14.7457C20.2468 14.2353 20.6324 13.8163 21.1387 13.7465L27.3415 12.892C30.4326 12.4661 33.5675 12.4661 36.6586 12.892L42.8613 13.7465C43.3676 13.8163 43.7533 14.2353 43.7808 14.7457L43.9561 17.9913L44.7657 5.84775Z" fill="#363545"/>
<path fill-rule="evenodd" clip-rule="evenodd" d="M44.0236 49.1449L49.5373 54.6586C50.1231 55.2444 51.0729 55.2444 51.6586 54.6586C52.2444 54.0729 52.2444 53.1231 51.6586 52.5373L12.0607 12.9393C11.4749 12.3536 10.5251 12.3536 9.93934 12.9393C9.35355 13.5251 9.35355 14.4749 9.93934 15.0607L19.6763 24.7976L19.2 33.6165L20.2182 53.9802C20.2457 54.5298 20.6868 54.9683 21.2366 54.9925L24.843 55.1514C24.6516 54.9586 24.5334 54.6931 24.5334 54.4V48C24.5334 47.4109 25.0109 46.9333 25.6 46.9333H38.4C38.9891 46.9333 39.4667 47.4109 39.4667 48V54.4C39.4667 54.6931 39.3485 54.9586 39.1571 55.1514L42.7634 54.9925C43.3132 54.9683 43.7543 54.5298 43.7818 53.9802L44.0236 49.1449ZM38.0952 43.2165L36.8108 41.9322C36.4197 42.3822 35.8431 42.6667 35.2001 42.6667H28.8001C27.6219 42.6667 26.6667 41.7115 26.6667 40.5333V31.7881L25.6 30.7213V43.2165H38.0952ZM31.0359 36.1573C29.4537 35.7918 28.2083 34.5463 27.8428 32.9641L31.0359 36.1573Z" fill="#363545"/>
<path d="M36.2668 32C36.2668 32.3523 36.224 32.6947 36.1435 33.0222L37.3334 34.2121V23.4667C37.3334 22.2885 36.3783 21.3333 35.2001 21.3333H28.8001C27.6219 21.3333 26.6667 22.2885 26.6667 23.4667V23.5454L30.9779 27.8566C31.3054 27.776 31.6477 27.7333 32.0001 27.7333C34.3565 27.7333 36.2668 29.6436 36.2668 32Z" fill="#363545"/>
<path fill-rule="evenodd" clip-rule="evenodd" d="M25.6 49.0667C25.6 48.4776 26.0775 48 26.6666 48H37.3333C37.9224 48 38.4 48.4776 38.4 49.0667V54.4C38.4 54.9891 37.9224 55.4667 37.3333 55.4667H26.6666C26.0775 55.4667 25.6 54.9891 25.6 54.4V49.0667ZM33.0667 50.1333C33.0667 49.5442 33.5442 49.0667 34.1334 49.0667H36.2667C36.8558 49.0667 37.3334 49.5442 37.3334 50.1333V51.2C37.3334 51.7891 36.8558 52.2667 36.2667 52.2667H34.1334C33.5442 52.2667 33.0667 51.7891 33.0667 51.2V50.1333Z" fill="#363545"/>
<path d="M25.5999 56.4L23.4666 56L25.5999 58.6666H38.3999L40.5333 56L38.3999 56.4H25.5999Z" fill="#363545"/>
</svg>
