<svg width="64" height="64" viewBox="0 0 64 64" fill="none" xmlns="http://www.w3.org/2000/svg">
<path d="M31.0187 12.228C31.0187 11.686 31.458 11.2466 32 11.2466C32.542 11.2466 32.9813 11.686 32.9813 12.228V12.2438H31.0187V12.228Z" fill="#363545"/>
<path d="M32.9813 37.6871V37.6713H31.0187V37.6871C31.0187 38.2291 31.458 38.6684 32 38.6684C32.542 38.6684 32.9813 38.2291 32.9813 37.6871Z" fill="#363545"/>
<path fill-rule="evenodd" clip-rule="evenodd" d="M25.7244 12.2438C22.9576 12.2438 20.7146 14.4867 20.7146 17.2536V32.6615C20.7146 35.4283 22.9576 37.6712 25.7244 37.6712H38.2756C41.0424 37.6712 43.2853 35.4283 43.2853 32.6615V17.2535C43.2853 14.4867 41.0424 12.2438 38.2756 12.2438H25.7244ZM32 25.7055C34.9809 25.7055 37.3973 23.2501 37.3973 20.2212C37.3973 17.1923 34.9809 14.7368 32 14.7368C29.0191 14.7368 26.6027 17.1923 26.6027 20.2212C26.6027 23.2501 29.0191 25.7055 32 25.7055ZM39.36 27.4506C39.36 28.139 38.8108 28.697 38.1333 28.697C37.4558 28.697 36.9066 28.139 36.9066 27.4506C36.9066 26.7622 37.4558 26.2042 38.1333 26.2042C38.8108 26.2042 39.36 26.7622 39.36 27.4506ZM26.3573 28.697C27.3058 28.697 28.0747 27.9158 28.0747 26.952C28.0747 25.9883 27.3058 25.207 26.3573 25.207C25.4089 25.207 24.64 25.9883 24.64 26.952C24.64 27.9158 25.4089 28.697 26.3573 28.697ZM36.9067 25.4563C36.9067 25.8694 36.5771 26.2042 36.1707 26.2042C35.7642 26.2042 35.4347 25.8694 35.4347 25.4563C35.4347 25.0433 35.7642 24.7085 36.1707 24.7085C36.5771 24.7085 36.9067 25.0433 36.9067 25.4563ZM30.0683 28.697C29.2382 28.697 28.5653 29.3699 28.5653 30.1999V34.1741C28.5653 35.0042 29.2382 35.6771 30.0683 35.6771H33.9317C34.7618 35.6771 35.4347 35.0042 35.4347 34.1741V30.1999C35.4347 29.3699 34.7618 28.697 33.9317 28.697H30.0683Z" fill="#363545"/>
<path fill-rule="evenodd" clip-rule="evenodd" d="M17.6243 4.26666C16.5936 4.26666 15.731 5.04854 15.6301 6.0743L14.8267 14.2381H12.864V54.1243H51.136V14.2381H49.1733L48.3699 6.0743C48.2689 5.04854 47.4063 4.26666 46.3756 4.26666H17.6243ZM44.2666 14.2382L43.6036 10.8693C43.4186 9.92984 42.5949 9.25243 41.6374 9.25243H22.3626C21.405 9.25243 20.5813 9.92984 20.3964 10.8693L19.7333 14.2381V37.1631C19.7333 38.2698 20.6305 39.167 21.7372 39.167H42.2628C43.3695 39.167 44.2667 38.2698 44.2667 37.1631L44.2666 14.2382ZM41.8133 42.6571V46.8853H39.0095C38.659 46.8833 37.6076 46.8857 37.1403 47.5903L35.2711 50.4084C35.0247 50.7791 34.6889 51.1343 34.339 51.1329L29.6635 51.1139C29.3146 51.1125 28.9741 50.7791 28.7289 50.4084L26.8597 47.5903C26.3924 46.8857 25.3391 46.8853 24.9905 46.8853H22.1867L22.1867 42.6571H41.8133Z" fill="#363545"/>
<path d="M11.4745 14.2381H12.3733V54.1243H11.2451C10.7847 54.1243 10.3383 53.9657 9.98105 53.6753L8.20655 52.2328C7.73844 51.8523 7.46667 51.2811 7.46667 50.6779V18.2459C7.46667 16.0325 9.26102 14.2381 11.4745 14.2381Z" fill="#363545"/>
<path d="M51.6267 14.2381V54.1243H52.7549C53.2153 54.1243 53.6617 53.9657 54.0189 53.6753L55.7934 52.2328C56.2616 51.8523 56.5333 51.2811 56.5333 50.6779V18.2459C56.5333 16.7795 55.7458 15.4971 54.5707 14.7985V4.64672C54.5707 4.43682 54.4005 4.26666 54.1906 4.26666C53.9904 4.26666 53.8245 4.42203 53.8114 4.62184L53.177 14.2908C52.965 14.2561 52.7474 14.2381 52.5255 14.2381H51.6267Z" fill="#363545"/>
<path d="M24.64 55.1215L26.48 59.7333H37.52L39.36 55.1215H24.64Z" fill="#363545"/>
</svg>
