<svg width="64" height="64" viewBox="0 0 64 64" fill="none" xmlns="http://www.w3.org/2000/svg">
<path d="M16.446 8C15.5682 8 14.7886 8.3147 14.3188 8.79345L19.0392 13.1927V12.3636H43.3147V16.3077C42.0181 16.3077 40.7215 18.9846 40.7215 20V33.3997L50.374 42.3955V23.8587C50.374 22.2264 49.4413 21.3799 48.5011 21.1538V9.84615C48.5011 8.83077 47.3342 8 45.9079 8H16.446Z" fill="#363545"/>
<path fill-rule="evenodd" clip-rule="evenodd" d="M55.9195 52.8091L10.6532 10.6227L10.8142 10.4727L8 13.0954L13.8528 18.55V21.1606C12.8594 21.3965 11.9799 22.2423 11.9799 23.8587V52.4593C11.9799 52.5362 12.8594 53.127 13.8528 53.3206V55.0769C13.8528 55.1692 15.0197 56 16.446 56H19.0392C19.1832 56 20.3852 55.9888 21.2867 55.9707C21.458 55.99 21.6336 56 21.8125 56H41.4778C41.6088 56 41.738 55.9947 41.8651 55.9842C42.5587 55.9942 43.211 56 43.3147 56H45.9079C47.3342 56 48.5011 55.1692 48.5011 55.0769V53.3262C49.2974 53.1674 50.0885 52.7114 50.3119 52.5284L53.2663 55.2818L55.9195 52.8091ZM21.6325 25.8003L23.2172 27.2772V38.1265C23.2172 39.7969 24.7523 41.1636 26.6285 41.1636H35.7254C36.4106 41.1636 37.0502 40.9813 37.5862 40.6686L40.7215 43.5905V44.6546H21.8125C21.7521 44.6546 21.6921 44.6557 21.6325 44.658V25.8003Z" fill="#363545"/>
<path d="M39.1367 31.9227V18.8916C39.1367 17.2212 37.6016 15.8545 35.7254 15.8545H26.6285C25.3315 15.8545 24.1975 16.5076 23.621 17.4627L28.3553 21.8748C29.1657 21.3792 30.1353 21.091 31.177 21.091C34.0213 21.091 36.3274 23.2402 36.3274 25.891C36.3274 26.8618 36.0181 27.7653 35.4863 28.5207L39.1367 31.9227Z" fill="#363545"/>
</svg>
