<svg width="64" height="64" viewBox="0 0 64 64" fill="none" xmlns="http://www.w3.org/2000/svg">
<path fill-rule="evenodd" clip-rule="evenodd" d="M45.9512 8H43.5572H19.1094H16.7154H16.4978C15.0614 8 13.8862 8.83077 13.8862 9.84615V19.0769V21.1606C12.8858 21.3965 12 22.2423 12 23.8587V52.4593C12 52.5362 12.8858 53.127 13.8862 53.3206V55.0769C13.8862 55.1692 15.0614 56 16.4978 56H19.1094C19.2544 56 20.465 55.9888 21.3729 55.9707C21.5454 55.99 21.7223 56 21.9025 56H41.7073C41.8392 56 41.9693 55.9947 42.0973 55.9842C42.7959 55.9942 43.4528 56 43.5572 56H46.1688C47.6052 56 48.7805 55.1692 48.7805 55.0769V53.3262C49.7273 53.1387 50.6667 52.537 50.6667 52.4593V23.8587C50.6667 22.2264 49.7273 21.3799 48.7805 21.1538V19.0769V9.84615C48.7805 8.83077 47.6052 8 46.1688 8H45.9512ZM40.9456 44.6546V20C40.9456 18.9846 42.2514 16.3077 43.5572 16.3077V12.6154V12.3636H19.1094V12.6154V16.3077C20.5458 16.3077 21.7211 18.9846 21.7211 20V43.0769V44.658C21.7811 44.6557 21.8416 44.6546 21.9025 44.6546H40.9456ZM26.7526 15.8545C24.8631 15.8545 23.3171 17.2212 23.3171 18.8916V38.1265C23.3171 39.7969 24.8631 41.1636 26.7526 41.1636H35.914C37.8036 41.1636 39.3496 39.7969 39.3496 38.1265V18.8916C39.3496 17.2212 37.8036 15.8545 35.914 15.8545H26.7526ZM31.3333 21.091C28.4688 21.091 26.1463 23.4133 26.1463 26.2776C26.1463 29.142 28.4688 31.4643 31.3333 31.4643C34.1978 31.4643 36.5203 29.142 36.5203 26.2776C36.5203 23.4133 34.1978 21.091 31.3333 21.091Z" fill="#363545"/>
</svg>
