<svg width="64" height="64" viewBox="0 0 64 64" fill="none" xmlns="http://www.w3.org/2000/svg">
<g id="x12">
<path id="shape" fill-rule="evenodd" clip-rule="evenodd" d="M25.0019 15.3939L26.0112 16.0501C26.3895 16.2961 26.6177 16.7167 26.6177 17.168V19.2348H37.2518V17.0066C37.2518 16.6471 37.3969 16.3029 37.6543 16.052L39.5306 14.2222V5.99999C39.5306 5.63181 39.829 5.33333 40.1972 5.33333H42.766C43.0909 5.33333 43.3685 5.56748 43.4232 5.88769L44.5591 12.5345C44.7349 13.5628 45.4941 14.3942 46.5023 14.6623L49.2404 15.3906C51.5768 16.012 53.2029 18.1271 53.2029 20.5447V50.6167C53.2029 51.8597 52.3442 52.9379 51.1327 53.2159L41.1732 55.5011C40.5864 55.6358 39.9862 55.7038 39.3841 55.7038H38.7688V58.6664H25.0964V55.7034H25.8332C25.319 55.6984 24.8063 55.6438 24.3024 55.5403L20.4461 54.7486C20.234 55.3073 19.6937 55.7044 19.0606 55.7044H18.6149C18.0012 55.7044 17.5038 56.2019 17.5038 56.8155V57.167C17.5038 57.5865 17.1637 57.9266 16.7442 57.9266C16.3247 57.9266 15.9846 57.5865 15.9846 57.167V54.6346C15.9846 54.3539 16.0525 54.0955 16.1703 53.8707L12.797 53.1782C11.5568 52.9236 10.6666 51.832 10.6666 50.566V20.9809C10.6666 18.3657 12.563 16.1362 15.1443 15.7167L18.294 15.2048C19.2841 15.0438 20.2855 14.963 21.2886 14.963H23.5484C24.0644 14.963 24.5693 15.1127 25.0019 15.3939ZM26.6177 32.1482V30.5677H37.2518V32.1482C37.2518 32.8846 36.6549 33.4815 35.9185 33.4815H27.9511C27.2147 33.4815 26.6177 32.8846 26.6177 32.1482ZM22.4245 24.9628C22.4245 25.5765 21.9144 26.0739 21.2852 26.0739C20.6559 26.0739 20.1458 25.5765 20.1458 24.9628C20.1458 24.3492 20.6559 23.8517 21.2852 23.8517C21.9144 23.8517 22.4245 24.3492 22.4245 24.9628ZM26.4506 55.1982V53.1835H28.2785L28.7955 52.6136C29.0482 52.335 29.4069 52.1761 29.783 52.1761H34.0852C34.4614 52.1761 34.82 52.335 35.0727 52.6136L35.5898 53.1835H37.4176V55.1982H26.4506ZM28.8908 57.926C29.3103 57.926 29.6504 57.5943 29.6504 57.1852C29.6504 56.7761 29.3103 56.4445 28.8908 56.4445C28.4713 56.4445 28.1313 56.7761 28.1313 57.1852C28.1313 57.5943 28.4713 57.926 28.8908 57.926ZM35.7305 57.1852C35.7305 57.5943 35.3904 57.926 34.9709 57.926C34.5514 57.926 34.2113 57.5943 34.2113 57.1852C34.2113 56.7761 34.5514 56.4445 34.9709 56.4445C35.3904 56.4445 35.7305 56.7761 35.7305 57.1852ZM16.7357 20.2238C16.7357 20.592 17.0342 20.8905 17.4024 20.8905H20.6265C20.9947 20.8905 21.2932 20.592 21.2932 20.2238V19.3349C21.2932 18.9667 20.9947 18.6683 20.6265 18.6683H17.4024C17.0342 18.6683 16.7357 18.9667 16.7357 19.3349V20.2238Z" fill="#363545"/>
</g>
</svg>
