<svg width="64" height="64" viewBox="0 0 64 64" fill="none" xmlns="http://www.w3.org/2000/svg">
<path fill-rule="evenodd" clip-rule="evenodd" d="M17.0667 6.83219C17.0667 6.56872 17.1782 6.3165 17.3758 6.13304L17.941 5.60836C18.131 5.43197 18.3853 5.33333 18.65 5.33333H19.9478C20.2741 5.33333 20.5806 5.48295 20.7721 5.73568C21.261 6.38087 21.6097 7.44722 21.8182 8.93469C21.9935 10.1856 22.0336 11.5445 22.0768 13.0112C22.0978 13.7212 22.1194 14.4565 22.1576 15.217L23.6121 15.1777V15.0702L25.7939 15.0701V38.2747L26.5212 39.681H35.9758L37.4303 36.8684V14.7375H38.6967C38.7401 14.4905 38.7952 14.3671 38.8625 14.3671C38.9634 14.3671 41.1869 14.4501 41.5164 14.5503C41.8458 14.6505 42.3605 15.1427 43.4383 16.3757C44.1219 17.1577 44.7561 17.9655 45.3409 18.7991C45.399 18.882 45.4303 18.9808 45.4303 19.0822V24.2114H45.903C46.0436 24.2114 46.1576 24.3338 46.1576 24.4848V26.7506C46.1576 26.9016 46.0436 27.0241 45.903 27.0241H45.4303V45.6327C45.4303 45.6904 45.4201 45.7476 45.4002 45.8019L43.1297 52.015C43.0589 52.209 42.8747 52.3379 42.6684 52.3379H42.5212L41.7801 57.4499C41.7552 57.6674 41.5816 57.8422 41.3559 57.8773C37.9784 58.4036 34.585 58.6667 31.1758 58.6667C27.7668 58.6667 24.3422 58.4036 20.9016 57.8776C20.672 57.8424 20.4964 57.6628 20.475 57.4415L19.9791 52.3724H19.7127C19.4934 52.3724 19.2988 52.2378 19.2296 52.0388L17.1706 46.1113C17.1018 45.913 17.0667 45.7057 17.0667 45.4967V6.83219ZM31.103 56.3006C31.6252 56.3006 32.0485 55.8958 32.0485 55.3961C32.0485 54.8965 31.6252 54.4914 31.103 54.4914C30.5808 54.4914 30.1576 54.8965 30.1576 55.3961C30.1576 55.8958 30.5808 56.3006 31.103 56.3006ZM24.1939 55.3961C24.1939 55.8958 23.7707 56.3006 23.2485 56.3006C22.7263 56.3006 22.303 55.8958 22.303 55.3961C22.303 54.8965 22.7263 54.4914 23.2485 54.4914C23.7707 54.4914 24.1939 54.8965 24.1939 55.3961ZM39.103 56.3006C39.6252 56.3006 40.0485 55.8958 40.0485 55.3961C40.0485 54.8965 39.6252 54.4914 39.103 54.4914C38.5809 54.4914 38.1576 54.8965 38.1576 55.3961C38.1576 55.8958 38.5809 56.3006 39.103 56.3006ZM23.6121 50.2286V52.3382H38.8848V50.2286H36.703C36.4317 50.2286 35.6121 50.2284 35.2485 49.8768L33.7939 48.4708C33.6031 48.2858 33.3382 48.1195 33.0667 48.1188L29.4283 48.1093C29.1561 48.1086 28.8948 48.2858 28.703 48.4708L27.2485 49.8768C26.8848 50.2284 26.0667 50.2296 25.7939 50.2286H23.6121Z" fill="#363545"/>
<path fill-rule="evenodd" clip-rule="evenodd" d="M29.7503 15.0702H27.6557C27.4308 15.0702 27.2485 15.288 27.2485 15.5566V38.0315C27.2485 38.1658 27.3396 38.2747 27.4521 38.2747H29.9539C30.0664 38.2747 30.1576 38.1658 30.1576 38.0315V37.5716L33.0667 37.0267V37.7884C33.0667 38.057 33.2739 38.2747 33.5294 38.2747H35.513C35.7685 38.2747 35.9757 38.057 35.9757 37.7884V15.5566C35.9757 15.288 35.7685 15.0702 35.513 15.0702H33.5294C33.2739 15.0702 33.0667 15.288 33.0667 15.5566V16.3183L30.1576 15.7734V15.5566C30.1576 15.288 29.9753 15.0702 29.7503 15.0702ZM34.7159 27.705C35.3086 27.5862 35.702 27.0276 35.5944 26.4575C35.4868 25.8873 34.9193 25.5214 34.3265 25.6401C33.7338 25.7588 33.3403 26.3173 33.448 26.8875C33.5556 27.4577 34.1231 27.8235 34.7159 27.705ZM35.5944 18.7226C35.702 19.2928 35.3086 19.8513 34.7159 19.97C34.1231 20.0888 33.5556 19.7228 33.448 19.1527C33.3403 18.5825 33.7338 18.024 34.3265 17.9053C34.9193 17.7865 35.4868 18.1525 35.5944 18.7226ZM34.7159 35.4398C35.3086 35.321 35.702 34.7624 35.5944 34.1922C35.4868 33.6221 34.9193 33.2562 34.3265 33.375C33.7338 33.4936 33.3403 34.0521 33.448 34.6223C33.5556 35.1925 34.1231 35.5585 34.7159 35.4398Z" fill="#363545"/>
</svg>
