<svg width="64" height="64" viewBox="0 0 64 64" fill="none" xmlns="http://www.w3.org/2000/svg">
<path fill-rule="evenodd" clip-rule="evenodd" d="M6.40002 5.76552C6.40002 5.50206 6.51156 5.24984 6.70919 5.06637L7.27435 4.54169C7.46434 4.36531 7.71867 4.26666 7.98339 4.26666H9.28114C9.60742 4.26666 9.91394 4.41629 10.1055 4.66901C10.5944 5.3142 10.9431 6.38055 11.1516 7.86802C11.3269 9.11895 11.367 10.4778 11.4102 11.9446C11.4311 12.6545 11.4528 13.3898 11.4909 14.1503L12.9455 14.111V14.0036L15.1273 14.0034V37.208L15.8546 38.6143H25.3091L26.7637 35.8017V13.6709H28.0301C28.0735 13.4239 28.1285 13.3004 28.1959 13.3004C28.2967 13.3004 30.5203 13.3834 30.8497 13.4836C31.1792 13.5839 31.6938 14.076 32.7717 15.309C33.4553 16.091 34.0895 16.8988 34.6742 17.7324C34.7324 17.8153 34.7637 17.9142 34.7637 18.0155V23.1447H35.2364C35.377 23.1447 35.4909 23.2671 35.4909 23.4182V25.6839C35.4909 25.835 35.377 25.9574 35.2364 25.9574H34.7637V44.5661C34.7637 44.6238 34.7535 44.681 34.7336 44.7353L32.4631 50.9484C32.3923 51.1423 32.208 51.2713 32.0017 51.2713H31.8546L31.1135 56.3833C31.0885 56.6007 30.9149 56.7755 30.6892 56.8107C27.3118 57.337 23.9183 57.6 20.5091 57.6C17.1001 57.6 13.6755 57.337 10.235 56.8109C10.0053 56.7758 9.82975 56.5961 9.80836 56.3748L9.31246 51.3057H9.04608C8.82679 51.3057 8.63215 51.1712 8.56298 50.9721L6.50395 45.0446C6.43513 44.8463 6.40002 44.639 6.40002 44.4301V5.76552ZM20.4364 55.2339C20.9586 55.2339 21.3818 54.8291 21.3818 54.3294C21.3818 53.8298 20.9586 53.4247 20.4364 53.4247C19.9142 53.4247 19.4909 53.8298 19.4909 54.3294C19.4909 54.8291 19.9142 55.2339 20.4364 55.2339ZM13.5273 54.3294C13.5273 54.8291 13.104 55.2339 12.5818 55.2339C12.0597 55.2339 11.6364 54.8291 11.6364 54.3294C11.6364 53.8298 12.0597 53.4247 12.5818 53.4247C13.104 53.4247 13.5273 53.8298 13.5273 54.3294ZM28.4364 55.2339C28.9586 55.2339 29.3819 54.8291 29.3819 54.3294C29.3819 53.8298 28.9586 53.4247 28.4364 53.4247C27.9142 53.4247 27.4909 53.8298 27.4909 54.3294C27.4909 54.8291 27.9142 55.2339 28.4364 55.2339ZM12.9455 49.1619V51.2715H28.2182V49.1619H26.0364C25.7651 49.1619 24.9455 49.1617 24.5818 48.8102L23.1273 47.4041C22.9365 47.2191 22.6715 47.0528 22.4 47.0521L18.7617 47.0427C18.4895 47.0419 18.2281 47.2191 18.0364 47.4041L16.5818 48.8102C16.2182 49.1617 15.4 49.1629 15.1273 49.1619H12.9455Z" fill="#363545"/>
<path fill-rule="evenodd" clip-rule="evenodd" d="M19.0836 14.0036H16.9891C16.7641 14.0036 16.5818 14.2213 16.5818 14.4899V36.9648C16.5818 37.0991 16.673 37.208 16.7855 37.208H19.2873C19.3998 37.208 19.4909 37.0991 19.4909 36.9648V36.505L22.4 35.96V36.7217C22.4 36.9903 22.6073 37.208 22.8628 37.208H24.8463C25.1018 37.208 25.3091 36.9903 25.3091 36.7217V14.4899C25.3091 14.2213 25.1018 14.0036 24.8463 14.0036H22.8628C22.6073 14.0036 22.4 14.2213 22.4 14.4899V15.2517L19.4909 14.7067V14.4899C19.4909 14.2213 19.3086 14.0036 19.0836 14.0036ZM24.0492 26.6383C24.6419 26.5195 25.0354 25.961 24.9278 25.3908C24.8201 24.8206 24.2526 24.4547 23.6599 24.5734C23.0672 24.6922 22.6737 25.2507 22.7813 25.8208C22.889 26.391 23.4565 26.7568 24.0492 26.6383ZM24.9278 17.656C25.0354 18.2262 24.6419 18.7846 24.0492 18.9034C23.4565 19.0221 22.889 18.6562 22.7813 18.086C22.6737 17.5158 23.0672 16.9574 23.6599 16.8386C24.2526 16.7199 24.8201 17.0858 24.9278 17.656ZM24.0492 34.3731C24.6419 34.2543 25.0354 33.6958 24.9278 33.1256C24.8201 32.5554 24.2526 32.1896 23.6599 32.3084C23.0672 32.4269 22.6737 32.9855 22.7813 33.5556C22.889 34.1258 23.4565 34.4919 24.0492 34.3731Z" fill="#363545"/>
<path fill-rule="evenodd" clip-rule="evenodd" d="M42.6667 38.4H52.2667L57.6 43.7333V57.6C57.6 58.7765 56.6432 59.7333 55.4667 59.7333H42.6667C41.4902 59.7333 40.5334 58.7765 40.5334 57.6V40.5333C40.5334 39.3568 41.4902 38.4 42.6667 38.4ZM43.7334 46.9333H45.8667V42.6667H43.7334V46.9333ZM46.9334 46.9333H49.0667V42.6667H46.9334V46.9333ZM50.1334 46.9333H52.2667V42.6667H50.1334V46.9333Z" fill="#363545"/>
</svg>
