<svg width="64" height="64" viewBox="0 0 64 64" fill="none" xmlns="http://www.w3.org/2000/svg">
<path fill-rule="evenodd" clip-rule="evenodd" d="M6.70919 5.06637C6.51156 5.24984 6.40002 5.50206 6.40002 5.76552V44.4301C6.40002 44.639 6.43513 44.8463 6.50395 45.0446L8.56298 50.9721C8.63215 51.1712 8.82679 51.3057 9.04608 51.3057H9.31246L9.80836 56.3748C9.82975 56.5961 10.0053 56.7758 10.235 56.8109C13.6755 57.337 17.1001 57.6 20.5091 57.6C23.9183 57.6 27.3118 57.337 30.6892 56.8107C30.9149 56.7755 31.0885 56.6007 31.1135 56.3833L31.8546 51.2713H32.0017C32.208 51.2713 32.3923 51.1423 32.4631 50.9484L34.7336 44.7353C34.7535 44.681 34.7637 44.6238 34.7637 44.5661V25.9574H35.2364C35.377 25.9574 35.4909 25.835 35.4909 25.6839V23.4182C35.4909 23.2671 35.377 23.1447 35.2364 23.1447H34.7637V18.0155C34.7637 17.9142 34.7324 17.8153 34.6742 17.7324C34.0895 16.8988 33.4553 16.091 32.7717 15.309C31.6938 14.076 31.1792 13.5839 30.8497 13.4836C30.5203 13.3834 28.2967 13.3004 28.1959 13.3004C28.1285 13.3004 28.0735 13.4239 28.0301 13.6709H26.7637V35.8017L25.3091 38.6143H15.8546L15.1273 37.208V14.0034L12.9455 14.0036V14.111L11.4909 14.1503C11.4528 13.3898 11.4311 12.6545 11.4102 11.9446C11.367 10.4778 11.3269 9.11895 11.1516 7.86802C10.9431 6.38055 10.5944 5.3142 10.1055 4.66901C9.91394 4.41629 9.60742 4.26666 9.28114 4.26666H7.98339C7.71867 4.26666 7.46434 4.36531 7.27435 4.54169L6.70919 5.06637ZM21.3818 54.3294C21.3818 54.8291 20.9586 55.2339 20.4364 55.2339C19.9142 55.2339 19.4909 54.8291 19.4909 54.3294C19.4909 53.8298 19.9142 53.4247 20.4364 53.4247C20.9586 53.4247 21.3818 53.8298 21.3818 54.3294ZM12.5818 55.2339C13.104 55.2339 13.5273 54.8291 13.5273 54.3294C13.5273 53.8298 13.104 53.4247 12.5818 53.4247C12.0597 53.4247 11.6364 53.8298 11.6364 54.3294C11.6364 54.8291 12.0597 55.2339 12.5818 55.2339ZM29.3819 54.3294C29.3819 54.8291 28.9586 55.2339 28.4364 55.2339C27.9142 55.2339 27.4909 54.8291 27.4909 54.3294C27.4909 53.8298 27.9142 53.4247 28.4364 53.4247C28.9586 53.4247 29.3819 53.8298 29.3819 54.3294ZM12.9455 51.2715V49.1619H15.1273C15.4 49.1629 16.2182 49.1617 16.5818 48.8102L18.0364 47.4041C18.2281 47.2191 18.4895 47.0419 18.7617 47.0427L22.4 47.0521C22.6715 47.0528 22.9365 47.2191 23.1273 47.4041L24.5818 48.8102C24.9455 49.1617 25.7651 49.1619 26.0364 49.1619H28.2182V51.2715H12.9455Z" fill="#363545"/>
<path fill-rule="evenodd" clip-rule="evenodd" d="M16.9891 14.0036H19.0836C19.3086 14.0036 19.4909 14.2213 19.4909 14.4899V14.7067L22.4 15.2517V14.4899C22.4 14.2213 22.6073 14.0036 22.8628 14.0036H24.8463C25.1018 14.0036 25.3091 14.2213 25.3091 14.4899V36.7217C25.3091 36.9903 25.1018 37.208 24.8463 37.208H22.8628C22.6073 37.208 22.4 36.9903 22.4 36.7217V35.96L19.4909 36.505V36.9648C19.4909 37.0991 19.3998 37.208 19.2873 37.208H16.7855C16.673 37.208 16.5818 37.0991 16.5818 36.9648V14.4899C16.5818 14.2213 16.7641 14.0036 16.9891 14.0036ZM24.9278 25.3908C25.0354 25.961 24.6419 26.5195 24.0492 26.6383C23.4565 26.7568 22.889 26.391 22.7813 25.8208C22.6737 25.2507 23.0672 24.6922 23.6599 24.5734C24.2526 24.4547 24.8201 24.8206 24.9278 25.3908ZM24.0492 18.9034C24.6419 18.7846 25.0354 18.2262 24.9278 17.656C24.8201 17.0858 24.2526 16.7199 23.6599 16.8386C23.0672 16.9574 22.6737 17.5158 22.7813 18.086C22.889 18.6562 23.4565 19.0221 24.0492 18.9034ZM24.9278 33.1256C25.0354 33.6958 24.6419 34.2543 24.0492 34.3731C23.4565 34.4919 22.889 34.1258 22.7813 33.5556C22.6737 32.9855 23.0672 32.4269 23.6599 32.3084C24.2526 32.1896 24.8201 32.5554 24.9278 33.1256Z" fill="#363545"/>
<path fill-rule="evenodd" clip-rule="evenodd" d="M57.2908 49.0667C57.2908 49.4333 57.268 49.7778 57.2223 50.1111L59.5182 51.8667C59.7352 52.0222 59.7924 52.3 59.6553 52.5444L57.4622 56.2333C57.3251 56.4778 57.0396 56.5667 56.7883 56.4778L54.0583 55.4111C53.4986 55.8333 52.8818 56.1889 52.2079 56.4556L51.7967 59.2778C51.7624 59.5444 51.5339 59.7333 51.2598 59.7333H46.8736C46.5994 59.7333 46.3824 59.5444 46.3253 59.2778L45.9141 56.4556C45.2402 56.1889 44.6348 55.8333 44.0637 55.4111L41.3337 56.4778C41.0824 56.5556 40.7968 56.4778 40.6598 56.2333L38.4667 52.5444C38.4054 52.4335 38.3856 52.3053 38.4105 52.1817C38.4355 52.0581 38.5038 51.9468 38.6037 51.8667L40.9225 50.1111C40.8654 49.7778 40.8425 49.4111 40.8425 49.0667C40.8425 48.7222 40.8882 48.3556 40.9453 48.0222L38.6266 46.2667C38.3981 46.1111 38.3524 45.8222 38.4895 45.5889L40.6712 41.9C40.8083 41.6556 41.0938 41.5667 41.3451 41.6556L44.0751 42.7222C44.6348 42.3111 45.2516 41.9444 45.9255 41.6778L46.3367 38.8556C46.3824 38.5889 46.5994 38.4 46.8736 38.4H51.2598C51.3921 38.3996 51.5202 38.4453 51.6208 38.5289C51.7214 38.6125 51.7878 38.7284 51.8081 38.8556L52.2193 41.6778C52.8932 41.9444 53.4986 42.3 54.0697 42.7222L56.7997 41.6556C56.9236 41.6123 57.0592 41.6132 57.1826 41.6579C57.3059 41.7026 57.409 41.7884 57.4736 41.9L59.6667 45.5889C59.728 45.6998 59.7478 45.828 59.7228 45.9516C59.6978 46.0752 59.6296 46.1866 59.5296 46.2667L57.2109 48.0222C57.268 48.3556 57.2908 48.7111 57.2908 49.0667ZM44.9546 49.0667C44.9546 51.2667 46.805 53.0667 49.0667 53.0667C51.3283 53.0667 53.1788 51.2667 53.1788 49.0667C53.1788 46.8667 51.3283 45.0667 49.0667 45.0667C46.805 45.0667 44.9546 46.8667 44.9546 49.0667Z" fill="#363545"/>
</svg>
