<svg width="64" height="64" viewBox="0 0 64 64" fill="none" xmlns="http://www.w3.org/2000/svg">
<path d="M32.0411 5.35704C36.4666 5.36204 39.584 6.02306 41.4176 6.7781C41.4674 9.52555 41.4923 18.9521 39.0795 25.8918L40.6217 26.4602L40.6316 26.4377C40.8563 25.9285 43.7316 19.4121 45.0741 9.99924C45.4223 10.6624 45.5716 11.1598 45.5716 11.1598C57.3866 18.0047 58.2572 30.8656 58.2572 30.8656C58.2572 30.8656 60.0481 32.7604 60.3217 33.4709C60.523 34.0111 60.6839 37.2689 60.7549 38.9533C42.1957 33.9297 22.6443 33.8531 4.04572 38.7314L3.20002 38.9532C3.27042 37.2713 3.43197 33.9728 3.63435 33.4472C3.90796 32.7367 5.69888 30.8419 5.69888 30.8419C5.69888 30.8419 6.56946 17.9574 18.3845 11.1361C18.3845 11.1361 18.5338 10.6387 18.882 9.97556C20.2244 19.3884 23.0998 25.9048 23.3245 26.414L23.3344 26.4365L24.8766 25.8681C22.4638 18.9284 22.4887 9.52555 22.5384 6.75442C24.3791 5.9965 27.5132 5.33333 31.9656 5.33333L32.0411 5.35704Z" fill="#363545"/>
<path d="M56.0078 44.2523C56.248 43.0511 56.248 41.8499 56.0078 40.8889C55.7676 40.1682 54.0859 39.6877 53.1249 39.4475C46.3982 37.5255 39.4312 37.2853 32.4643 37.045C25.7375 37.2853 19.2511 37.5255 13.0048 38.967C8.2 39.9279 7.95976 40.4084 8.2 44.012V44.2523C24.0559 40.1682 40.1519 40.1682 56.0078 44.2523Z" fill="#363545"/>
<path d="M45.4372 57.946C50.9628 56.985 54.3261 54.1021 55.2871 49.5375C55.2871 48.3363 55.5273 46.6547 55.7676 45.9339C39.9117 41.6096 24.0559 41.6096 8.44024 45.9339C8.44024 46.7639 8.66965 47.7087 8.81143 48.2925C8.87484 48.5536 8.92072 48.7426 8.92072 48.8168C9.4012 50.7387 10.1219 52.6607 11.3231 54.3423C14.206 57.4655 18.7706 57.9459 23.3351 58.4264H24.7766C26.9387 58.4264 28.8607 57.9459 30.3021 56.024C30.7826 55.3033 31.5033 55.0631 31.9838 55.0631C32.7045 55.0631 33.4252 55.5435 34.1459 56.2643C35.3471 57.7057 36.7886 58.6667 38.7105 58.6667H39.6715L45.4372 57.946Z" fill="#363545"/>
<path d="M6.73023 46.3452C6.44593 44.1602 6.03784 41.0238 6.03784 39.9279C3.15495 41.1291 2.91471 43.0511 3.3952 46.4144C3.3952 46.1742 3.87568 48.0961 3.63544 48.0961C3.6817 48.1886 3.72797 48.2901 3.77595 48.3953C3.97712 48.8364 4.20845 49.3436 4.5964 49.5375C5.18946 49.9329 5.78252 50.1656 6.64329 50.5034C6.82858 50.5761 7.02627 50.6536 7.23904 50.7387C7.23904 49.7778 7.23904 49.0571 6.9988 48.5766C6.9988 48.4092 6.8822 47.5131 6.73023 46.3452Z" fill="#363545"/>
<path d="M61.0528 45.2132C61.2931 42.0901 60.5724 40.8889 58.17 39.9279C57.9297 41.6096 57.6895 43.2913 57.6895 44.2523C57.6895 44.7327 57.4492 47.8559 57.209 48.0961C57.0814 48.4789 57.0216 48.9295 56.9575 49.4118C56.901 49.8376 56.8412 50.2882 56.7285 50.7387L57.209 50.979C57.326 50.94 57.4492 50.901 57.5758 50.861C58.2289 50.6544 58.9687 50.4205 59.3712 50.018C59.8516 49.7778 60.3321 49.0571 60.3321 48.5766C60.3321 48.5766 60.8126 46.1742 61.0528 45.2132Z" fill="#363545"/>
</svg>
